# xmcd database file
#
# Track frame offsets:
# 150
# 11031
# 21006
# 32303
# 41159
# 52673
# 66172
# 75079
# 84558
# 94156
# 102725
# 115016
# 127537
# 139888
# 154839
# 165379
# 181829
# 193614
#
# Disc length: 2760 seconds
#
# Revision: 1
# Processed by: cddbd v1.5.2PL0 Copyright (c) Steve Scherf et al.
# Submitted via: CD-Runner 2007.02
#
DISCID=d10ac612
DTITLE=Roy Acuff - Hand-Clapping Gospel Songs
DYEAR=2008
DGENRE=Gospel
TTITLE0=Somebody Touched Me
TTITLE1=Turn Your Radio On
TTITLE2=Jesus Died For Me
TTITLE3=Wait For The Light To Shine
TTITLE4=Lord, Build Me A Cabin In Glory
TTITLE5=Thank God
TTITLE6=That Glory Bound Train
TTITLE7=I Saw The Light
TTITLE8=I'll Fly Away
TTITLE9=It's All Right Now
TTITLE10=Traveling The Highway Home
TTITLE11=Glory Is Coming
TTITLE12=That Great Speckled Bird
TTITLE13=The Precious Jewel
TTITLE14=This World Can't Stand Long
TTITLE15=Hallelujah Square
TTITLE16=Little Moses
TTITLE17=From Cradle, To Cross, To Crown
EXTD=
EXTT0=
EXTT1=
EXTT2=
EXTT3=
EXTT4=
EXTT5=
EXTT6=
EXTT7=
EXTT8=
EXTT9=
EXTT10=
EXTT11=
EXTT12=
EXTT13=
EXTT14=
EXTT15=
EXTT16=
EXTT17=
PLAYORDER=
